<?xml version="1.0" encoding="UTF-8" standalone="no"?>
<svg
   xmlns:dc="http://purl.org/dc/elements/1.1/"
   xmlns:cc="http://creativecommons.org/ns#"
   xmlns:rdf="http://www.w3.org/1999/02/22-rdf-syntax-ns#"
   xmlns:svg="http://www.w3.org/2000/svg"
   xmlns="http://www.w3.org/2000/svg"
   xmlns:sodipodi="http://sodipodi.sourceforge.net/DTD/sodipodi-0.dtd"
   xmlns:inkscape="http://www.inkscape.org/namespaces/inkscape"
   height="128px"
   id="Layer_1"
   style="enable-background:new 0 0 127.999 128;"
   version="1.1"
   viewBox="0 0 127.999 128"
   width="127.999px"
   xml:space="preserve"
   sodipodi:docname="fb.svg"
   inkscape:version="0.92.3 (2405546, 2018-03-11)"><metadata
     id="metadata13"><rdf:RDF><cc:Work
         rdf:about=""><dc:format>image/svg+xml</dc:format><dc:type
           rdf:resource="http://purl.org/dc/dcmitype/StillImage" /></cc:Work></rdf:RDF></metadata><defs
     id="defs11" /><sodipodi:namedview
     pagecolor="#ffffff"
     bordercolor="#666666"
     borderopacity="1"
     objecttolerance="10"
     gridtolerance="10"
     guidetolerance="10"
     inkscape:pageopacity="0"
     inkscape:pageshadow="2"
     inkscape:window-width="1920"
     inkscape:window-height="1001"
     id="namedview9"
     showgrid="false"
     inkscape:zoom="1.84375"
     inkscape:cx="63.9995"
     inkscape:cy="64"
     inkscape:window-x="-9"
     inkscape:window-y="-9"
     inkscape:window-maximized="1"
     inkscape:current-layer="g6" /><style
     type="text/css"
     id="style2">
<![CDATA[
	.st0{fill:#231F20;}
]]>
</style><g
     id="g6"><path
       class="st0"
       d="M64,7.989c-30.885,0-56.01,25.126-56.01,56.01c0,30.885,25.125,56.012,56.01,56.012   c30.883,0,56.01-25.127,56.01-56.012C120.01,33.115,94.883,7.989,64,7.989z M79.83,43.347c0,0.552-0.447,0.999-1,1l-6.367,0.004   c-4.201,0-4.969,1.636-4.969,4.858v6.684h10.92c0.287,0,0.561,0.124,0.75,0.34s0.277,0.503,0.242,0.788l-1.555,12.033   c-0.064,0.499-0.49,0.872-0.992,0.872h-9.365v29.879c0,0.553-0.447,1-1,1H54.07c-0.553,0-1-0.447-1-1V69.926h-9.395   c-0.553,0-1-0.447-1-1V56.893c0-0.553,0.447-1,1-1h9.395v-7.875c0-10.43,6.312-16.908,16.475-16.908   c4.369,0,8.23,0.325,9.416,0.482c0.498,0.066,0.869,0.49,0.869,0.991V43.347z"
       id="path4"
       style="fill:#ff1400;fill-opacity:1" /></g></svg>