<?xml version="1.0" encoding="UTF-8" standalone="no"?>
<svg
   xmlns:dc="http://purl.org/dc/elements/1.1/"
   xmlns:cc="http://creativecommons.org/ns#"
   xmlns:rdf="http://www.w3.org/1999/02/22-rdf-syntax-ns#"
   xmlns:svg="http://www.w3.org/2000/svg"
   xmlns="http://www.w3.org/2000/svg"
   xmlns:sodipodi="http://sodipodi.sourceforge.net/DTD/sodipodi-0.dtd"
   xmlns:inkscape="http://www.inkscape.org/namespaces/inkscape"
   height="128px"
   id="Layer_1"
   style="enable-background:new 0 0 127.999 128;"
   version="1.1"
   viewBox="0 0 127.999 128"
   width="127.999px"
   xml:space="preserve"
   sodipodi:docname="google.svg"
   inkscape:version="0.92.3 (2405546, 2018-03-11)"><metadata
     id="metadata17"><rdf:RDF><cc:Work
         rdf:about=""><dc:format>image/svg+xml</dc:format><dc:type
           rdf:resource="http://purl.org/dc/dcmitype/StillImage" /></cc:Work></rdf:RDF></metadata><defs
     id="defs15" /><sodipodi:namedview
     pagecolor="#ffffff"
     bordercolor="#666666"
     borderopacity="1"
     objecttolerance="10"
     gridtolerance="10"
     guidetolerance="10"
     inkscape:pageopacity="0"
     inkscape:pageshadow="2"
     inkscape:window-width="1920"
     inkscape:window-height="1001"
     id="namedview13"
     showgrid="false"
     inkscape:zoom="1.84375"
     inkscape:cx="63.9995"
     inkscape:cy="64"
     inkscape:window-x="-9"
     inkscape:window-y="-9"
     inkscape:window-maximized="1"
     inkscape:current-layer="Layer_1" /><style
     type="text/css"
     id="style2">
<![CDATA[
	.st0{fill:#231F20;}
]]>
</style><g
     id="g10"
     style="fill:#f2ff00;fill-opacity:1"><path
       class="st0"
       d="M55.436,38.818c-1.083-0.779-2.326-1.193-3.77-1.244c-1.873,0.052-3.395,0.787-4.648,2.246   c-1.091,1.614-1.597,3.366-1.545,5.354c0,2.761,0.819,5.661,2.437,8.647c0.753,1.338,1.742,2.496,2.934,3.428   c1.136,0.893,2.398,1.326,3.86,1.326c1.803-0.068,3.296-0.697,4.523-1.922c0.574-0.877,0.947-1.782,1.11-2.693   c0.104-0.967,0.161-1.845,0.161-2.542c0-3.006-0.784-6.087-2.332-9.158C57.469,40.843,56.551,39.688,55.436,38.818z"
       id="path4"
       style="fill:#f2ff00;fill-opacity:1" /><path
       class="st0"
       d="M45.892,75.392c-0.629,0.288-1.32,0.732-2.029,1.31c-0.622,0.546-1.18,1.27-1.632,2.127   c-0.517,0.894-0.769,1.969-0.769,3.23c0,2.514,1.12,4.537,3.426,6.185c2.274,1.709,5.444,2.594,9.439,2.646   c3.525-0.051,6.244-0.822,8.054-2.294c1.72-1.409,2.557-3.176,2.557-5.397c0-1.811-0.572-3.343-1.75-4.687   c-1.297-1.319-3.402-3.013-6.226-4.997c-0.41-0.033-0.889-0.049-1.454-0.049c-0.041,0-0.082-0.003-0.123-0.008   c-0.072-0.009-0.173-0.011-0.303-0.011c-0.521,0-1.408,0.057-2.638,0.171c-1.571,0.224-3.244,0.597-4.924,1.103   C47.188,74.85,46.621,75.083,45.892,75.392z"
       id="path6"
       style="fill:#f2ff00;fill-opacity:1" /><path
       class="st0"
       d="M64,7.989c-30.885,0-56.011,25.126-56.011,56.01c0,30.885,25.126,56.012,56.011,56.012   c30.884,0,56.01-25.127,56.01-56.012C120.01,33.115,94.884,7.989,64,7.989z M34.105,78.335c0.96-1.988,2.712-3.754,5.198-5.235   c2.72-1.552,5.595-2.595,8.562-3.108c2.093-0.307,3.884-0.514,5.432-0.627c-0.216-0.353-0.42-0.713-0.612-1.08   c-0.589-0.929-0.908-2.131-0.908-3.505c0-0.785,0.109-1.47,0.326-2.036c-0.385,0.021-0.759,0.03-1.121,0.03   c-4.581-0.057-8.134-1.537-10.571-4.4c-2.491-2.605-3.773-5.734-3.773-9.257c0-4.221,1.786-8.087,5.31-11.491   c2.457-2.024,4.996-3.335,7.607-3.949c2.523-0.515,4.903-0.772,7.102-0.772h16.115c0.452,0,0.848,0.303,0.965,0.738   c0.118,0.437-0.07,0.897-0.461,1.125l-4.977,2.906c-0.152,0.089-0.327,0.136-0.504,0.136h-2.246   c0.559,0.626,1.094,1.344,1.611,2.159c0.59,0.915,1.123,2.014,1.579,3.258c0.398,1.317,0.591,2.804,0.591,4.473   c-0.048,3.086-0.752,5.603-2.093,7.497c-0.624,0.873-1.296,1.689-1.999,2.429c-0.793,0.752-1.593,1.483-2.441,2.226   c-0.371,0.389-0.778,0.905-1.15,1.481c-0.389,0.532-0.561,1.084-0.561,1.735c0,0.59,0.158,1.054,0.483,1.416   c0.422,0.529,0.806,0.964,1.181,1.338l2.663,2.174c1.766,1.449,3.323,3.053,4.629,4.766c1.338,1.891,2.034,4.325,2.092,7.268   c0,4.204-1.855,7.95-5.517,11.153c-3.734,3.263-9.157,4.972-16.12,5.082c-0.005,0-0.011,0-0.016,0c-0.003,0-0.006,0-0.009,0   c-5.854-0.054-10.321-1.347-13.278-3.842c-3.022-2.368-4.568-5.287-4.568-8.653C32.626,82.119,33.124,80.292,34.105,78.335z    M95.604,46.802c0,0.553-0.447,1-1,1h-7.455v7.454c0,0.553-0.447,1-1,1h-4.098c-0.553,0-1-0.447-1-1v-7.454h-7.454   c-0.553,0-1-0.447-1-1v-4.097c0-0.552,0.447-1,1-1h7.454v-7.458c0-0.552,0.447-1,1-1h4.098c0.553,0,1,0.448,1,1v7.458h7.455   c0.553,0,1,0.448,1,1V46.802z"
       id="path8"
       style="fill:#f2ff00;fill-opacity:1" /></g></svg>