<?xml version="1.0" encoding="UTF-8" standalone="no"?>
<svg
   xmlns:dc="http://purl.org/dc/elements/1.1/"
   xmlns:cc="http://creativecommons.org/ns#"
   xmlns:rdf="http://www.w3.org/1999/02/22-rdf-syntax-ns#"
   xmlns:svg="http://www.w3.org/2000/svg"
   xmlns="http://www.w3.org/2000/svg"
   xmlns:sodipodi="http://sodipodi.sourceforge.net/DTD/sodipodi-0.dtd"
   xmlns:inkscape="http://www.inkscape.org/namespaces/inkscape"
   height="128px"
   id="Layer_1"
   style="enable-background:new 0 0 127.999 128;"
   version="1.1"
   viewBox="0 0 127.999 128"
   width="127.999px"
   xml:space="preserve"
   sodipodi:docname="insta.svg"
   inkscape:version="0.92.3 (2405546, 2018-03-11)"><metadata
     id="metadata19"><rdf:RDF><cc:Work
         rdf:about=""><dc:format>image/svg+xml</dc:format><dc:type
           rdf:resource="http://purl.org/dc/dcmitype/StillImage" /></cc:Work></rdf:RDF></metadata><defs
     id="defs17" /><sodipodi:namedview
     pagecolor="#ffffff"
     bordercolor="#666666"
     borderopacity="1"
     objecttolerance="10"
     gridtolerance="10"
     guidetolerance="10"
     inkscape:pageopacity="0"
     inkscape:pageshadow="2"
     inkscape:window-width="1920"
     inkscape:window-height="1001"
     id="namedview15"
     showgrid="false"
     inkscape:zoom="1.84375"
     inkscape:cx="63.9995"
     inkscape:cy="64"
     inkscape:window-x="-9"
     inkscape:window-y="-9"
     inkscape:window-maximized="1"
     inkscape:current-layer="Layer_1" /><style
     type="text/css"
     id="style2">
<![CDATA[
	.st0{fill:#231F20;}
]]>
</style><g
     id="g12"
     style="fill:#4eff00;fill-opacity:1"><path
       class="st0"
       d="M64.053,75.321c6.188,0,11.207-4.861,11.207-10.855c0-6-5.02-10.857-11.207-10.857   c-6.186,0-11.203,4.857-11.203,10.857C52.85,70.459,57.867,75.321,64.053,75.321z"
       id="path4"
       style="fill:#4eff00;fill-opacity:1" /><path
       class="st0"
       d="M76.748,53.924h6.305c1.381,0,2.512-1.131,2.512-2.514v-6.009c0-1.383-1.131-2.516-2.512-2.516h-6.305   c-1.385,0-2.512,1.133-2.512,2.516v6.009C74.236,52.793,75.363,53.924,76.748,53.924z"
       id="path6"
       style="fill:#4eff00;fill-opacity:1" /><path
       class="st0"
       d="M81.398,65.072c0,9.276-7.768,16.802-17.346,16.802c-9.576,0-17.342-7.525-17.342-16.802   c0-1.667,0.254-3.271,0.719-4.79h-5.123V83.85c0,1.221,0.996,2.213,2.217,2.213h38.848c1.223,0,2.219-0.992,2.219-2.213V60.282   h-4.91C81.146,61.801,81.398,63.405,81.398,65.072z"
       id="path8"
       style="fill:#4eff00;fill-opacity:1" /><path
       class="st0"
       d="M63.998,7.989c-30.883,0-56.008,25.126-56.008,56.01c0,30.885,25.125,56.012,56.008,56.012   c30.885,0,56.012-25.127,56.012-56.012C120.01,33.115,94.883,7.989,63.998,7.989z M91.896,85.319c0,3.938-3.223,7.158-7.16,7.158   H43.268c-3.938,0-7.162-3.22-7.162-7.158V43.852c0-3.94,3.225-7.162,7.162-7.162h41.469c3.938,0,7.16,3.222,7.16,7.162V85.319z"
       id="path10"
       style="fill:#4eff00;fill-opacity:1" /></g></svg>